# xmcd CD database file
#
# Track frame offsets:
#	150
#	30228
#	55509
#	75194
#	104971
#	123880
#	138860
#	154434
#	167939
#	188261
#	217365
#	234382
#	248996
#	281207
#
# Disc length: 4093 seconds
#
# Revision: 1
# Processed by: cddbd v1.4PL0 Copyright (c) Steve Scherf et al.
# Submitted via: CDex 1.51
#
DISCID=be0ffb0e
DTITLE=Medwyn Goodall - All Good Things
DYEAR=1997
DGENRE=New Age
TTITLE0=Hospitality
TTITLE1=The Grail
TTITLE2=Merlin's Cave
TTITLE3=Coral Palace
TTITLE4=Skylark
TTITLE5=Lagoon
TTITLE6=King Arthur
TTITLE7=Vicuna
TTITLE8=Machu Picchu
TTITLE9=Lancelot Du Lac
TTITLE10=Please
TTITLE11=Forbidden Kiss
TTITLE12=Independence
TTITLE13=Magic Centre
EXTD=YEAR: 1997
EXTT0=
EXTT1=
EXTT2=
EXTT3=
EXTT4=
EXTT5=
EXTT6=
EXTT7=
EXTT8=
EXTT9=
EXTT10=
EXTT11=
EXTT12=
EXTT13=
PLAYORDER=
